# xmcd
#
# Track frame offsets:
#	182
#	10732
#	28057
#	44182
#	56257
#	72532
#	88807
#	103882
#	119482
#	135232
#	149707
#	164482
#
# Disc length: 2353 seconds
#
# Revision: 2
# Processed by: cddbd v1.4PL0 Copyright (c) Steve Scherf et al.
# Submitted via: audiograbber 1.81.03
#
DISCID=b5092f0c
DTITLE=Tina Mastenbroek - A Truck Drivers Wife
DYEAR=1900
DGENRE=Country
TTITLE0=Come Out On Friday Night
TTITLE1=A truck drivers Wife
TTITLE2=i can't believe in you
TTITLE3=what hurts
TTITLE4=tell me you love me
TTITLE5=you came into my live
TTITLE6=highway back to you
TTITLE7=just holding you again
TTITLE8=high on your love 
TTITLE9=bye bye baby bye bye
TTITLE10=paradise
TTITLE11=sky is the limet
EXTD=
EXTT0=
EXTT1=
EXTT2=
EXTT3=
EXTT4=
EXTT5=
EXTT6=
EXTT7=
EXTT8=
EXTT9=
EXTT10=
EXTT11=eigen werk australische country
PLAYORDER=
